# xmcd
#
# Track frame offsets: 
#        150
#        18914
#        33714
#        57319
#        77044
#        95007
#        113471
#        129824
#        145927
#        159675
#        176620
#
# Disc length: 2617 seconds
#
# Revision: 0
# Processed by: cddbd v1.5.2PL0 Copyright (c) Steve Scherf et al.
# Submitted via: ExactAudioCopy v1.3
#
DISCID=890a370b
DTITLE=Kenne Cramer - All Day Long
DYEAR=2017
DGENRE=Blues Rock
TTITLE0=The Itch
TTITLE1=442
TTITLE2=All Day Long
TTITLE3=Someday a Change is Gonna Come
TTITLE4=Who'll Be the Next In Line
TTITLE5=All Along the Watchtower
TTITLE6=Blue Tears
TTITLE7=She's Trouble
TTITLE8=Built for Lovin'
TTITLE9=Kenne C's Triumph
TTITLE10=Livin' Ain't Cheap
EXTD=
EXTT0=
EXTT1=
EXTT2=
EXTT3=
EXTT4=
EXTT5=
EXTT6=
EXTT7=
EXTT8=
EXTT9=
EXTT10=
PLAYORDER=
